<?xml version="1.0" standalone="no"?><!DOCTYPE svg PUBLIC "-//W3C//DTD SVG 1.1//EN" "http://www.w3.org/Graphics/SVG/1.1/DTD/svg11.dtd"><svg class="icon" width="200px" height="200.00px" viewBox="0 0 1024 1024" version="1.1" xmlns="http://www.w3.org/2000/svg"><path d="M512 511.9m-447.7 0a447.7 447.7 0 1 0 895.4 0 447.7 447.7 0 1 0-895.4 0Z" fill="#63D9FF" /><path d="M506.5 768.6c-49.7 0-90.1-40.4-90.1-90.1V571.9c0-17.9-5.5-35.1-15.9-49.7L291.8 369.6c-15.8-22.2-17.8-51-5.4-75.2s37.1-39.2 64.4-39.2h318.9c27.6 0 52.5 15.4 64.8 40.1 12.3 24.7 9.6 53.8-7 75.9L613.8 521.9c-11.1 14.8-17.2 33.1-17.2 51.5v105.1c0 49.7-40.4 90.1-90.1 90.1z m-155.7-474c-12.6 0-23.5 6.7-29.3 17.8-5.8 11.2-4.8 23.9 2.5 34.2l108.7 152.7c15.2 21.3 23.2 46.4 23.2 72.5v106.7c0 27.9 22.7 50.6 50.6 50.6 27.9 0 50.6-22.7 50.6-50.6v-105c0-27 8.9-53.7 25.2-75.3L696 347.4c7.7-10.2 8.9-23.1 3.2-34.5-5.7-11.4-16.7-18.2-29.5-18.2H350.8z" fill="#FFFFFF" /></svg>