<?xml version="1.0" standalone="no"?><!DOCTYPE svg PUBLIC "-//W3C//DTD SVG 1.1//EN" "http://www.w3.org/Graphics/SVG/1.1/DTD/svg11.dtd"><svg class="icon" width="200px" height="200.00px" viewBox="0 0 1024 1024" version="1.1" xmlns="http://www.w3.org/2000/svg"><path d="M512 512m-448.2 0a448.2 448.2 0 1 0 896.4 0 448.2 448.2 0 1 0-896.4 0Z" fill="#63D9FF" /><path d="M512 769.1c-33.3 0-66.5-3.5-99.6-10.5l-13.4-2.8c-37.9-8-72.8-26.5-100.8-53.4s-48.1-61.1-57.9-98.9c-15.6-59.8-15.6-123.1 0-183l19.1 5-19.1-5c9.9-37.8 29.9-72 57.9-98.9 28.1-27 62.9-45.4 100.8-53.4l13.4-2.8c66.1-13.9 133-13.9 199.1 0l13.3 2.8c37.9 8 72.8 26.5 100.8 53.4s48.1 61.1 57.9 98.9c15.6 59.8 15.6 123.1 0 183-9.9 37.8-29.9 72-57.9 98.9-28.1 27-62.9 45.4-100.8 53.4l-13.4 2.8c-32.9 7-66.1 10.5-99.4 10.5z m0-474.7c-30.5 0-61.1 3.2-91.4 9.6l-13.4 2.8c-62.9 13.3-112.2 60.7-128.7 123.6-13.9 53.3-13.9 109.7 0 163 16.4 63 65.7 110.4 128.7 123.6l13.4 2.8c60.6 12.8 122.1 12.8 182.8 0l13.4-2.8c62.9-13.3 112.2-60.7 128.7-123.6 13.9-53.3 13.9-109.7 0-163-16.4-63-65.7-110.4-128.7-123.6l-13.3-2.8c-30.4-6.4-61-9.6-91.5-9.6z" fill="#FFFFFF" /><path d="M459.3 610.9c-6.6 0-12.8-3.3-16.5-8.8L396 531.8h-42.1c-10.9 0-19.8-8.9-19.8-19.8s8.9-19.8 19.8-19.8h52.7c6.6 0 12.8 3.3 16.5 8.8l36.3 54.4 89-133.5c3.7-5.5 9.8-8.8 16.5-8.8s12.8 3.3 16.5 8.8l46.9 70.3h42.1c10.9 0 19.8 8.9 19.8 19.8s-8.9 19.8-19.8 19.8h-52.7c-6.6 0-12.8-3.3-16.5-8.8l-36.3-54.4-89 133.5c-3.8 5.5-10 8.8-16.6 8.8z" fill="#FFFFFF" /></svg>