<?xml version="1.0" standalone="no"?><!DOCTYPE svg PUBLIC "-//W3C//DTD SVG 1.1//EN" "http://www.w3.org/Graphics/SVG/1.1/DTD/svg11.dtd"><svg class="icon" width="200px" height="200.00px" viewBox="0 0 1024 1024" version="1.1" xmlns="http://www.w3.org/2000/svg"><path d="M512 512.2m-448 0a448 448 0 1 0 896 0 448 448 0 1 0-896 0Z" fill="#63D9FF" /><path d="M696.5 481.7h-369c-10.9 0-19.8-8.9-19.8-19.8s8.9-19.8 19.8-19.8h316.2l-114.1-99.5c-8.2-7.2-9.1-19.7-1.9-27.9 7.2-8.2 19.7-9.1 27.9-1.9L709.5 447c6.2 5.4 8.4 14.1 5.5 21.8-2.9 7.8-10.3 12.9-18.5 12.9zM481.4 716.5c-4.6 0-9.2-1.6-13-4.9L314.5 577.4c-6.2-5.4-8.4-14.1-5.5-21.8 2.9-7.7 10.3-12.8 18.5-12.8h368.9c10.9 0 19.8 8.9 19.8 19.8s-8.9 19.8-19.8 19.8H380.3l114.1 99.5c8.2 7.2 9.1 19.7 1.9 27.9-3.9 4.4-9.4 6.7-14.9 6.7z" fill="#FFFFFF" /></svg>