<?xml version="1.0" standalone="no"?><!DOCTYPE svg PUBLIC "-//W3C//DTD SVG 1.1//EN" "http://www.w3.org/Graphics/SVG/1.1/DTD/svg11.dtd"><svg class="icon" width="200px" height="200.00px" viewBox="0 0 1024 1024" version="1.1" xmlns="http://www.w3.org/2000/svg"><path d="M512 512.2m-448 0a448 448 0 1 0 896 0 448 448 0 1 0-896 0Z" fill="#63D9FF" /><path d="M512 769.2c-30 0-60-3-89.8-9.1l-12-2.4c-70.6-14.4-126-65.7-144.4-134-14.2-52.4-14.2-107.9 0-160.4 17.8-65.8 69.9-115.9 136.9-132.3 16.2-45.2 59.5-75.7 109.4-75.7 49.9 0 93.2 30.5 109.4 75.7 67 16.4 119.1 66.5 136.9 132.3 14.2 52.5 14.2 108 0 160.4-18.4 68.2-73.8 119.6-144.4 134l-12 2.4c-30 6.1-60 9.1-90 9.1z m0-474.4c-35.9 0-66.6 23.7-74.6 57.6-1.8 7.5-7.7 13.3-15.3 14.8l-4.1 0.8c-55.9 11.4-99.6 51.8-114.1 105.6-12.4 45.7-12.4 94.1 0 139.8 14.5 53.7 58.3 94.2 114.1 105.5l12 2.4c54.4 11.1 109.5 11.1 163.9 0l12-2.4c55.9-11.3 99.6-51.8 114.2-105.5 12.4-45.7 12.4-94.1 0-139.8-14.5-53.8-58.2-94.2-114.1-105.6l-4.1-0.8c-7.5-1.5-13.5-7.3-15.3-14.8-8-33.9-38.7-57.6-74.6-57.6z" fill="#FFFFFF" /><path d="M512 624.2c-47.2 0-85.6-38.4-85.6-85.6S464.8 453 512 453s85.6 38.4 85.6 85.6-38.4 85.6-85.6 85.6z m0-131.7c-25.4 0-46.1 20.7-46.1 46.1s20.7 46.1 46.1 46.1c25.4 0 46.1-20.7 46.1-46.1s-20.7-46.1-46.1-46.1z" fill="#FFFFFF" /></svg>